Coordinates
version=1
nRows=8
nColumns=40
inDegrees=yes

Units are S.I. units (second, meters, Newtons, ...)
Angles are in degrees.

endheader
time	pelvis_tilt	pelvis_list	pelvis_rotation	pelvis_tx	pelvis_ty	pelvis_tz	hip_flexion_r	hip_adduction_r	hip_rotation_r	knee_angle_r	knee_angle_r_beta	ankle_angle_r	subtalar_angle_r	mtp_angle_r	hip_flexion_l	hip_adduction_l	hip_rotation_l	knee_angle_l	knee_angle_l_beta	ankle_angle_l	subtalar_angle_l	mtp_angle_l	lumbar_extension	lumbar_bending	lumbar_rotation	arm_flex_r	arm_add_r	arm_rot_r	elbow_flex_r	pro_sup_r	wrist_flex_r	wrist_dev_r	arm_flex_l	arm_add_l	arm_rot_l	elbow_flex_l	pro_sup_l	wrist_flex_l	wrist_dev_l
     29.18750000	     -4.54655482	     -4.24366845	      1.22269742	      1.03684834	      0.91826371	      0.44655283	     23.60092190	      0.58735074	    -12.89162174	     24.45375762	     24.45375762	      7.44209815	     -7.37916447	     -1.98864401	      8.18181898	     -9.49225790	     -5.13306890	     40.05914491	     40.05914491	     13.74250277	    -15.16466592	     -7.60398363	    -10.73714496	      5.33387262	      1.31152208	     -7.08882168	    -14.20136745	     -2.96711971	     30.74255082	     46.03511557	      0.00000000	      0.00000000	      6.74646784	    -13.50293323	    -17.35003716	     99.03856335	     48.36701517	      0.00000000	      0.00000000
     29.19971429	     -4.49502161	     -4.34357466	      1.43339920	      1.03628161	      0.91902232	      0.44869663	     22.87008852	      0.80444625	    -13.23551989	     24.12134660	     24.12134660	      7.81661244	     -7.05815519	     -2.17819527	     10.16190185	     -9.99432453	     -4.48065540	     44.05263603	     44.05263603	     11.83343273	    -16.38445850	     -7.36086887	    -10.84100856	      5.46370359	      1.38753024	     -5.58276615	    -14.50976065	     -2.89231966	     31.53433700	     46.00942604	      0.00000000	      0.00000000	      6.00872673	    -13.14277122	    -16.81293418	     97.56824554	     48.30724046	      0.00000000	      0.00000000
     29.21192857	     -4.41396666	     -4.40140689	      1.65435335	      1.03549606	      0.91973474	      0.45071560	     22.15568180	      0.94208893	    -13.66878636	     23.85932141	     23.85932141	      8.08104837	     -6.66429879	     -2.67593096	     12.30548256	    -10.35757863	     -3.71109398	     48.24220961	     48.24220961	     10.83929344	    -17.07144292	     -4.38375703	    -10.97088249	      5.57076421	      1.88834402	     -4.55471699	    -15.06048417	     -2.25820345	     33.17943038	     45.90599961	      0.00000000	      0.00000000	      5.91319025	    -12.83879889	    -15.48107915	     94.84309895	     48.21383363	      0.00000000	      0.00000000
     29.22414286	     -4.36117807	     -4.49180765	      1.88865541	      1.03466698	      0.92030476	      0.45265717	     21.46615065	      1.11533035	    -14.09428724	     23.58678452	     23.58678452	      8.43899649	     -6.21112722	     -2.91253489	     14.46771090	    -10.73724033	     -2.99951439	     52.15390179	     52.15390179	      9.63739123	    -17.62604941	     -2.13562765	    -11.08183054	      5.68228032	      1.90474704	     -2.88843336	    -15.44435193	     -2.18049663	     34.18621992	     45.87306268	      0.00000000	      0.00000000	      5.33787119	    -12.55441054	    -14.79829596	     92.66844195	     48.14586924	      0.00000000	      0.00000000
     29.23635714	     -4.36396251	     -4.57203687	      2.08813570	      1.03357077	      0.92081258	      0.45451283	     20.84431469	      1.28919274	    -14.47821440	     23.28203831	     23.28203831	      8.70635519	     -5.78648246	     -3.08614459	     16.80361572	    -11.04896076	     -2.32836585	     56.01196860	     56.01196860	      9.50449040	    -17.65385477	      2.61454262	    -11.14195236	      5.78380595	      2.26269303	     -1.48370169	    -15.88753478	     -2.05332975	     35.48434391	     45.82308251	      0.00000000	      0.00000000	      5.03594708	    -12.27341137	    -13.53803380	     90.21395283	     48.05943200	      0.00000000	      0.00000000
     29.24857143	     -4.35222036	     -4.70408942	      2.31005271	      1.03237984	      0.92128907	      0.45636342	     20.20343607	      1.52391896	    -14.87253776	     22.95273385	     22.95273385	      9.00792476	     -5.35116781	     -3.18995863	     18.96755481	    -11.45874763	     -1.79895266	     59.20505475	     59.20505475	      8.24053390	    -18.05708610	      3.67126273	    -11.23209143	      5.90149431	      2.11967258	      0.51924776	    -16.16626469	     -2.12510623	     36.38164831	     45.80652182	      0.00000000	      0.00000000	      4.27737134	    -12.10044178	    -12.95472981	     88.09099203	     47.98513510	      0.00000000	      0.00000000
     29.26078571	     -4.35248468	     -4.87909680	      2.54107946	      1.03099641	      0.92175444	      0.45811159	     19.58098202	      1.80018718	    -15.30500782	     22.59382552	     22.59382552	      9.28320240	     -4.90959559	     -3.26508093	     21.13686831	    -11.87039654	     -1.28637085	     62.04121424	     62.04121424	      7.41876021	    -18.28502040	      4.92836200	    -11.32100849	      6.07362769	      2.11042783	      2.50722771	    -16.45423677	     -2.13969782	     37.22508010	     45.78852278	      0.00000000	      0.00000000	      3.67203638	    -11.82439643	    -12.27512776	     85.79981109	     47.90053871	      0.00000000	      0.00000000
     29.27300000	     -4.32357899	     -4.90934595	      2.73619987	      1.02947898	      0.92240334	      0.45960871	     18.94045292	      1.89044965	    -15.75746568	     22.28559640	     22.28559640	      9.62748569	     -4.24473981	     -3.31377792	     23.27169534	    -11.98744899	     -0.77499474	     64.59656964	     64.59656964	      7.98574412	    -18.21623094	      9.07644198	    -11.39952802	      6.10386421	      2.80882246	      4.12475394	    -17.01473234	     -1.80899101	     38.02395249	     45.74995382	      0.00000000	      0.00000000	      4.15980669	    -11.32270077	    -10.84535638	     81.55412797	     47.75181046	      0.00000000	      0.00000000
